<svg>xmlns=&quot;http://www.w3.org/2000/svg&quot; viewBox=&quot;0 0 375.652 369.666&quot;&gt;<defs><style>.a,.b,.f{fill:none;stroke:#f3d69b;stroke-miterlimit:10}.a{stroke-width:3px}.c,.d,.e{font-size:14px;fill:#9d9c80;font-family:Helvetica Neue}.d,.e{font-size:18px}.e{font-style:italic}.f{stroke-width:.4px}</style></defs><title>chromaticity_stub</title><path class="a" d="M113.828 322.7h-.036l-.072.036h-.072l-.108.036h-.432l-.252-.108-.396-.252-1.224-1.008-.9-.828-1.188-1.044-1.62-1.404-2.016-1.8-2.52-2.52-3.06-3.672-4.104-6.444-5.22-10.44-6.588-16.524-8.136-24.48-8.388-33.948-7.884-42.372-5.508-45.252-1.548-41.904 3.6-34.344 1.404-5.544 1.584-5.04 1.836-4.5 1.98-3.888 2.196-3.276 2.304-2.664 2.484-2.088 2.556-1.512 2.664-1.044 2.736-.54 2.808-.108 2.808.288 2.88.612 2.916.864 2.952 1.08 14.58 7.308 13.752 8.748 13.212 9.828 13.032 10.8 12.888 11.52 12.852 12.024 12.888 12.384 12.816 12.564 12.744 12.564 12.492 12.42 12.132 12.096 11.628 11.592 10.944 10.872 9.972 9.972 8.676 8.64 7.632 7.596 6.336 6.264 5.148 5.148 4.104 4.104 3.276 3.24 2.628 2.628 2.196 2.196 1.8 1.8 1.44 1.404 1.08 1.08.828.828.612.612.396.396.324.324.252.252.252.252.216.216.144.144.072.072.036.036L113.828 322.7z"/><path class="b" d="M51.152 324.5h324V.5h-324v324zm0 0v3.6"/><text class="c" transform="translate(41.152 342.5)">0.0</text><path class="b" d="M123.152 324.5v3.6"/><text class="c" transform="translate(113.152 342.5)">0.2</text><path class="b" d="M195.152 324.5v3.6"/><text class="c" transform="translate(185.152 342.5)">0.4</text><path class="b" d="M267.152 324.5v3.6"/><text class="c" transform="translate(257.152 342.5)">0.6</text><path class="b" d="M339.152 324.5v3.6"/><text class="c" transform="translate(329.152 342.5)">0.8</text><text class="d" transform="translate(195.152 364.5)">x</text><path class="b" d="M51.152 324.5h-3.6"/><text class="c" transform="translate(23.152 324.5)">0.0</text><path class="b" d="M51.152 252.5h-3.6"/><text class="c" transform="translate(23.152 252.5)">0.2</text><path class="b" d="M51.152 180.5h-3.6"/><text class="c" transform="translate(23.152 180.5)">0.4</text><path class="b" d="M51.152 108.5h-3.6"/><text class="c" transform="translate(23.152 108.5)">0.6</text><path class="b" d="M51.152 36.5h-3.6"/><text class="c" transform="translate(23.152 36.5)">0.8</text><text class="e" transform="translate(1.152 180.5)">y</text><text class="c" transform="translate(112.535 313.125)">450</text><path class="f" d="M105.528 316.128h4v4h-4z"/><text class="c" transform="translate(95.605 288.25)">475</text><path class="f" d="M88.608 291.252h4v4h-4z"/><text class="c" transform="translate(59.105 125.672)">500</text><path class="f" d="M52.104 128.676h4v4h-4z"/><text class="c" transform="translate(97.269 22.07)">525</text><path class="f" d="M90.264 25.068h4v4h-4z"/><text class="c" transform="translate(164.73 70.273)">550</text><path class="f" d="M157.728 73.272h4v4h-4z"/><text class="c" transform="translate(228.527 132.227)">575</text><path class="f" d="M221.52 135.228h4v4h-4z"/><text class="c" transform="translate(281.871 185.398)">600</text><path class="f" d="M274.872 188.4h4v4h-4z"/><text class="c" transform="translate(320.644 223.992)">660-780</text><path class="f" d="M313.644 226.992h4v4h-4z"/></svg>