<svg xmlns="http://www.w3.org/2000/svg" viewBox="284 226 532 373"><defs><style>.a{stroke:#f3d69b}.a,.c,.d,.e{fill:none;stroke-linecap:round;stroke-miterlimit:10}.a{stroke-width:1px}.b{font-size:10.75px;fill:#f3d69b;font-family:Helvetica Neue}.c,.d,.e{stroke-width:3px}.c{stroke-dasharray:3 3.75;stroke:#dd2}.d{stroke-dasharray:10 5;stroke:#9d3}.e{stroke:#62f}</style></defs><title>cones_norm_bolder</title><path class="a" d="M332.5 553.534h460.25m-460.25 0v-302m0 302v-2.5m76.75 2.5v-2.5m76.75 2.5v-2.5m76.5 2.5v-2.5m76.75 2.5v-2.5m76.75 2.5v-2.5m76.75 2.5v-2.5m-460.25 2.5v-5m153.5 5v-5m153.25 5v-5m153.5 5v-5"/><text class="b" transform="translate(320.357 566.034)">400.0</text><text class="b" transform="translate(473.857 566.034)">500.0</text><text class="b" transform="translate(627.107 566.034)">600.0</text><text class="b" transform="translate(780.607 566.034)">700.</text><text class="b" transform="translate(799.373 566.034)">0</text><text class="b" transform="translate(523.717 580.534)">Wavelength (nm)</text><path class="a" d="M332.5 553.534h2.5m-2.5-37.75h2.5m-2.5-37.75h2.5m-2.5-37.75h2.5m-2.5-37.75h2.5m-2.5-37.75h2.5m-2.5-37.75h2.5m-2.5-37.75h2.5m-2.5-37.75h2.5m-2.5 302h5m-5-75.5h5m-5-75.5h5m-5-75.5h5m-5-75.5h5"/><text class="b" transform="translate(312.248 557.034)">0.</text><text class="b" transform="translate(319.982 557.034)">0</text><text class="b" transform="translate(312.248 481.534)">0.</text><text class="b" transform="translate(319.982 481.534)">2</text><text class="b" transform="translate(312.248 406.034)">0.</text><text class="b" transform="translate(319.982 406.034)">4</text><text class="b" transform="translate(312.248 330.534)">0.</text><text class="b" transform="translate(319.982 330.534)">6</text><text class="b" transform="translate(312.248 255.042)">0.</text><text class="b" transform="translate(319.982 255.042)">8</text><text class="b" transform="rotate(-90 373.399 70.401)">Relative sensitivity</text><path class="c" d="M332.498 553.284l15.5-.5 15.25-1.25 15.25-1.25 15.5-1.25 15.25-1.25 15.25-2 15.5-5.5 15.25-10 15.25-14.75 30.75-63.5 30.75-84.25 15.25-26.5 15.25-17 15.5-9.5 15.25-1 15.5 7.75 15.25 17 15.25 24 15.5 30 15.25 33.5 15.25 36.25 15.5 29.75 15.25 23.5 15.25 16.25 15.5 10.25 15.25 5.5 15.25 3.25 15.5 1.5"/><path class="d" d="M332.498 553.534l15.5-.5 15.25-1 15.25-1.25 15.5-2.25 15.25-2.5 15.25-3.5 15.5-6.75 15.25-9.25 15.25-12 30.75-48.75 30.75-51.5 15.25-8.25 15.25 1.5 15.5 9.5 15.25 17.25 15.5 23 15.25 25.75 15.25 23.5 15.5 18.5 15.25 12.25 15.25 7.75 15.5 4.25 15.25 2.25 15.25 1 15.5.75 15.25.25h30.75"/><path class="e" d="M332.498 553.284l15.5-1 15.25-1.5 15.25-1.25 15.5-.25 15.25.25 15.25.5 15.5.5 15.25 1 15.25 1 30.75.75 30.75.25h260.75"/><path class="c" d="M363.498 297.034h26"/><text class="b" transform="translate(395.998 300.534)">L cones</text><path class="d" d="M363.498 310.534h26"/><text class="b" transform="translate(395.998 314.034)">M cones</text><path class="e" d="M363.498 324.034h26"/><text class="b" transform="translate(395.998 327.542)">S cones</text></svg>