<svg xmlns="http://www.w3.org/2000/svg" viewBox="0 0 343.183 326.23"><defs><style>.a,.b,.c,.d{fill:none}.a{stroke:#ddd}.a,.b,.c,.d,.g,.h,.i,.j,.k,.l,.m,.n{stroke-miterlimit:11.474}.a,.g,.h,.i,.j,.k,.l,.m,.n{stroke-width:.8px}.b,.d,.g,.h,.i,.j,.k,.l,.m,.n{stroke:#1d1d1b}.b,.c{stroke-width:1.5px}.c{stroke:#bbb}.d{stroke-width:2px}.e,.f,.h,.o,.p,.q{fill:#1d1d1b}.e,.g,.h,.i,.j,.k,.l,.m,.n{fill-rule:evenodd}.f{font-size:18px;font-family:Helvetica Neue}.g{fill:#fff}.i{fill:#e30613}.j{fill:#009fe3}.k{fill:#009640}.l{fill:#312783}.m{fill:#ffed00}.n{fill:#e6007e}.o,.p,.q{font-size:11px;font-family:Helvetica Neue}</style></defs><title>hls</title><path class="a" d="M170.297 37.98V291.2"/><path class="b" d="M170.3 253.98c59.47 0 108 16.13 108 36s-48.53 36-108 36-108-16.13-108-36 48.53-36 108-36zm0-253.73c59.47 0 108 16.13 108 36s-48.53 36-108 36-108-16.13-108-36 48.53-36 108-36zm1.08 131.91c59.47 0 108 16.12 108 36s-48.53 36-108 36-108-16.13-108-36 48.53-36 108-36z"/><path class="c" d="M170.3 55.98c59.47 0 108 16.13 108 36s-48.53 36-108 36-108-16.13-108-36 48.53-36 108-36z"/><path class="d" d="M149.347 80.68a105.753 105.753 0 0 1 20.88-1.95c21.53 0 39.24 5.62 39.89 12.82"/><path class="e" d="M149.277 78.01l-4.18 3.53 5.33 1.51-1.15-5.04z"/><path class="d" d="M169.797 92.48L138.117 76"/><path class="e" d="M137.317 78.52l-3.02-4.54 5.47-.22-2.45 4.76z"/><path class="a" d="M278.297 91.98l-108.5.5"/><path class="b" d="M278.3 37.76v253.23M62.3 37.76v253.23"/><path class="d" d="M170.297 289.98V96.3"/><path class="e" d="M167.637 96.73l2.66-4.75 2.66 4.75h-5.32z"/><text class="f" transform="translate(153.344 119.043)">L</text><text class="f" transform="translate(176.094 74.05)">H</text><text class="f" transform="translate(115.977 74.05)">S</text><path class="g" d="M171.377 28.98a9 9 0 1 1-9 9 9.046 9.046 0 0 1 9-9z"/><path class="h" d="M170.3 280.98a9 9 0 1 1-9 9 9.046 9.046 0 0 1 9-9z"/><path class="i" d="M279.377 159.16a9 9 0 1 1-9 9 9.046 9.046 0 0 1 9-9z"/><path class="j" d="M63.377 159.16a9 9 0 1 1-9 9 9.046 9.046 0 0 1 9-9z"/><path class="k" d="M118.457 127.98a8.965 8.965 0 1 1-9 8.93 8.986 8.986 0 0 1 9-8.93z"/><path class="l" d="M115.217 191.99a8.965 8.965 0 1 1-9 8.93 8.986 8.986 0 0 1 9-8.93z"/><path class="m" d="M226.387 128.99a8.965 8.965 0 1 1-9 8.93 8.992 8.992 0 0 1 9-8.93z"/><path class="n" d="M223.647 191.2a8.96 8.96 0 1 1-9 8.92 8.984 8.984 0 0 1 9-8.92z"/><text class="o" transform="translate(314.242 167.636)">Red</text><text class="o" transform="translate(299.844 138.839)">Yellow</text><text class="p" transform="translate(299.844 203.628)">Magenta</text><text class="q" transform="translate(0 167.636)">Cyan</text><text class="q" transform="translate(10.078 138.839)">Green</text><text class="o" transform="translate(20.516 203.628)">Blue</text><text class="p" transform="translate(191.859 30.855)">White</text><text class="o" transform="translate(191.859 304.418)">Black</text></svg>