<svg xmlns="http://www.w3.org/2000/svg" viewBox="-50 -55 100 80"><title>CIE Lab a values</title><style>text{font-family:Helvetica Neue;font-size:5px;text-anchor:middle;fill:#f3d69b}.oog{fill:#000;fill-opacity:.5;stroke-color:#999;stroke-width:.5px}</style><path fill="#F3D69B" d="M-.5-50h1V0h-1z"/><circle r="3" fill="#3B3B3B" cy="-12.5"/><circle r="3" fill="#777" cy="-25"/><circle r="3" fill="#B9B9B9" cy="-37.5"/><circle r="3" fill="#fff" cy="-50"/><path fill="#F3D69B" d="M-38.771-22.846l77.942 45-.5.866-77.942-45z"/><g stroke-width=".1" transform="rotate(30)"><circle class="oog" r="3" fill="#fff" cx="-40"/><circle r="3" fill="#2D8576" cx="-30"/><circle r="3" fill="#4D8176" cx="-20"/><circle r="3" fill="#647C77" cx="-10"/><circle r="3" fill="#887177" cx="10"/><circle r="3" fill="#976A78" cx="20"/><circle r="3" fill="#A66278" cx="30"/><circle r="3" fill="#B35979" cx="40"/></g><g><path fill="#F3D69B" d="M-39.171 22.154l77.942-45 .5.866-77.942 45z"/><g stroke-width=".1" transform="rotate(-30)"><circle r="3" fill="#4D79BB" cx="-40"/><circle r="3" fill="#5D78AA" cx="-30"/><circle r="3" fill="#687899" cx="-20"/><circle r="3" fill="#707788" cx="-10"/><circle r="3" fill="#7C7766" cx="10"/><circle r="3" fill="#807655" cx="20"/><circle r="3" fill="#837643" cx="30"/><circle r="3" fill="#86762F" cx="40"/></g></g><circle r="3"/><g class="labels"><text x="7" y="-50" text-anchor="left">L</text><text x="45" y="20" text-anchor="left">+a</text><text x="-45" y="20" text-anchor="right">-b</text><text x="45" y="-20" text-anchor="left">+b</text><text x="-45" y="-20" text-anchor="right">-a</text></g></svg>