<svg xmlns="http://www.w3.org/2000/svg" viewBox="0 0 298.843 301.091"><defs><style>.a,.c,.g,.n{fill:none}.a,.b,.c,.d,.e,.f,.g,.n{stroke:#1d1d1b;stroke-miterlimit:11.474}.a{stroke-width:2.02px}.b{fill:#9d9d9c}.b,.c,.d,.e,.f,.n{stroke-width:.22px}.b,.d,.e,.f,.o{fill-rule:evenodd}.d{fill:#c7ddc9}.e{fill:#e8bebf}.f{fill:#b7d0ee}.g{stroke-width:12.02px}.h,.i,.j{font-size:13.966px}.h,.i,.j,.k,.l,.m,.o,.p,.q{fill:#1d1d1b}.h,.i,.j,.k,.l,.m,.p,.q{font-family:Helvetica Neue}.h{letter-spacing:2.101px}.i{letter-spacing:3.151px}.k,.l,.m,.p,.q{font-size:12.022px}.k{letter-spacing:2px}.l{letter-spacing:1px}.n{stroke-dasharray:1.1 1.1}.p{letter-spacing:1px}.q{letter-spacing:6.001px}</style></defs><title>retinac</title><path class="a" d="M246.85 160.548l.07 6.91m13.11-5.61v4.82m-4.11-5.69l.36 6.48m-4.17-6.77v6.92m-10.3-7.92v7.77m-4.39-7.13v7.35"/><path class="b" d="M227.27 162.778c3.09 0 5.61 1.3 5.61 2.88 0 1.51-2.52 2.74-5.61 2.74s-5.62-.79-5.62-2.31c0-1.58 2.52-3.31 5.62-3.31z"/><path class="c" d="M265.14 166.668c1.51-.36 1.58-5.76 0-6.05-11.88-1.94-16.71-2.01-28.66-.93-1.29.07-.5 2.52-1.8 2.59-1.44.07-.72-1.51-2.23-1.73-4.9-.79-6.26.22-11.3.86-.87.08-1.01 1.52-1.95 1.3-1.73-.43-1.08-2.52-2.88-3.1-2.88-.93-2.73-1.15-5.61-.21-1.52.43-1.37 2.37-1.73 4.1-.58 2.02-1.08 3.96-.29 5.83.58 1.44 1.22 2.24 2.52 2.45 2.59.51 2.16.29 4.82-.36 1.73-.5 1.23-2.3 3.03-2.66.65-.15 1.15 1.8 1.8 1.87 5.61.79 6.62-.43 12.31-.79.86-.07.22-2.31 1.15-2.45s1.23 1.37 2.16 1.3c12.31-.8 16.78 1.08 28.66-2.02z"/><path class="a" d="M245.19 287.198l.08 6.91m13.1-5.62v4.83m-4.1-5.69l.36 6.48m-4.18-6.77v6.91m-10.3-7.92v7.78m-4.39-7.13v7.35"/><path class="b" d="M225.61 289.428c3.1 0 5.62 1.3 5.62 2.88 0 1.51-2.52 2.74-5.62 2.74s-5.62-.8-5.62-2.31c0-1.58 2.52-3.31 5.62-3.31z"/><path class="c" d="M263.48 293.318c1.51-.36 1.59-5.76 0-6.05-11.88-1.94-16.7-2.02-28.65-.94-1.3.08-.51 2.52-1.8 2.6-1.44.07-.72-1.52-2.24-1.73-4.89-.79-6.26.21-11.3.86-.86.07-1.01 1.51-1.94 1.3-1.73-.43-1.08-2.52-2.88-3.1-2.88-.93-2.74-1.15-5.62-.21-1.51.43-1.37 2.37-1.73 4.1-.57 2.02-1.08 3.96-.29 5.83.58 1.44 1.23 2.23 2.52 2.45 2.6.5 2.16.29 4.83-.36 1.73-.5 1.22-2.3 3.02-2.66.65-.15 1.15 1.8 1.8 1.87 5.62.79 6.63-.43 12.31-.79.87-.08.22-2.31 1.16-2.45s1.22 1.37 2.16 1.29c12.31-.79 16.77 1.08 28.65-2.01z"/><path class="a" d="M246.92 122.168l.07 6.92m13.11-5.62v4.82m-4.11-5.68l.36 6.48m-4.17-6.77v6.91m-10.3-7.92v7.78m-4.39-7.13v7.34"/><path class="b" d="M227.34 124.408c3.09 0 5.61 1.29 5.61 2.88 0 1.51-2.52 2.73-5.61 2.73s-5.62-.79-5.62-2.3c0-1.59 2.52-3.31 5.62-3.31z"/><path class="c" d="M265.21 128.288c1.51-.36 1.58-5.76 0-6.04-11.88-1.95-16.7-2.02-28.66-.94-1.29.07-.5 2.52-1.8 2.59-1.44.07-.72-1.51-2.23-1.73-4.89-.79-6.26.22-11.3.87-.87.07-1.01 1.51-1.95 1.29-1.72-.43-1.08-2.52-2.88-3.09-2.88-.94-2.73-1.15-5.61-.22-1.51.43-1.37 2.38-1.73 4.11-.58 2.01-1.08 3.96-.29 5.83.58 1.44 1.23 2.23 2.52 2.45 2.59.5 2.16.28 4.83-.36 1.72-.51 1.22-2.31 3.02-2.67.65-.14 1.15 1.8 1.8 1.87 5.62.8 6.62-.43 12.31-.79.87-.07.22-2.3 1.15-2.45s1.23 1.37 2.16 1.3c12.32-.79 16.78 1.08 28.66-2.02z"/><path class="a" d="M237.78 259.548v6.62m9.86-4.75v4.25m3.03-3.31l.07 2.81m-5.98-4.68v5.76m-4.03-6.48l-.07 6.91m-6.41-6.84l.14 7.41m-3.38-7.2v6.63"/><path class="b" d="M221.65 262.568c2.52 0 4.61 1.01 4.61 2.24 0 1.15-2.09 2.16-4.61 2.16s-4.54-.65-4.54-1.8c0-1.23 2.02-2.6 4.54-2.6z"/><path class="c" d="M254.7 264.588c1.22-.29 1.58-1.87.29-2.23-9.29-2.16-14.55-5.47-24.12-3.17-1.37.36-1.66 3.53-2.74 3.53-1.15.07-.72-1.51-2.3-1.8-4.04-.65-7.28.07-8.64.93a2.721 2.721 0 0 1-2.02.65c-1.44-.36-.86-1.94-2.38-2.37-2.37-.72-2.23-.72-4.6-.22-3.24.79 1.65 1.94-.58 3.31-1.37.87 3.46.94 1.44 4.32-.65 1.08-1.51 1.87-.5 2.02 2.16.43 1.8.21 3.96-.29 1.44-.36 1-1.73 2.52-2.02.5-.14.57.51 2.08 1.23 1.88.79 5.04 1.29 9.36-.43 1.95-.72 1.23-1.88 1.95-2.02.79-.07.65 1.58 3.31 2.09 4.75.93 13.18-1.15 22.97-3.53z"/><path class="a" d="M241.02 183.808v6.62m9.86-4.75v4.25m3.03-3.32l.07 2.81M248 184.74v5.76m-4.03-6.48l-.07 6.91m-6.41-6.84l.14 7.42m-3.38-7.2v6.62"/><path class="b" d="M224.89 186.828c2.52 0 4.61 1.01 4.61 2.23 0 1.15-2.09 2.16-4.61 2.16s-4.54-.65-4.54-1.8c0-1.22 2.02-2.59 4.54-2.59z"/><path class="c" d="M257.94 188.848c1.22-.29 1.58-1.88.29-2.24-9.29-2.16-14.55-5.47-24.12-3.16-1.37.36-1.66 3.52-2.74 3.52-1.15.08-.72-1.51-2.3-1.8-4.04-.64-7.28.08-8.64.94a2.764 2.764 0 0 1-2.02.65c-1.44-.36-.86-1.95-2.38-2.38-2.37-.72-2.23-.72-4.6-.21-3.24.79 1.65 1.94-.58 3.31-1.37.86 3.46.93 1.44 4.32-.65 1.08-1.51 1.87-.5 2.01 2.16.44 1.8.22 3.96-.28 1.44-.36 1-1.73 2.52-2.02.5-.14.57.5 2.08 1.22 1.88.8 5.04 1.3 9.36-.43 1.95-.72 1.23-1.87 1.95-2.01.79-.08.65 1.58 3.31 2.08 4.75.94 13.18-1.15 22.97-3.52z"/><path class="a" d="M241.02 204.398v6.62m9.86-4.75v4.25m3.03-3.31l.07 2.8m-5.98-4.68v5.76m-4.03-6.48l-.07 6.92m-6.41-6.84l.14 7.41m-3.38-7.2v6.63"/><path class="b" d="M224.89 207.418c2.52 0 4.61 1.01 4.61 2.23 0 1.16-2.09 2.16-4.61 2.16s-4.54-.64-4.54-1.8c0-1.22 2.02-2.59 4.54-2.59z"/><path class="c" d="M257.94 209.44c1.22-.29 1.58-1.87.29-2.23-9.29-2.16-14.55-5.48-24.12-3.17-1.37.36-1.66 3.53-2.74 3.53-1.15.07-.72-1.52-2.3-1.8-4.04-.65-7.28.07-8.64.93a2.721 2.721 0 0 1-2.02.65c-1.44-.36-.86-1.94-2.38-2.38-2.37-.72-2.23-.72-4.6-.21-3.24.79 1.65 1.94-.58 3.31-1.37.86 3.46.94 1.44 4.32-.65 1.08-1.51 1.87-.5 2.02 2.16.43 1.8.21 3.96-.29 1.44-.36 1-1.73 2.52-2.02.5-.14.57.51 2.08 1.23 1.88.79 5.04 1.29 9.36-.44 1.95-.72 1.23-1.87 1.95-2.01.79-.07.65 1.58 3.31 2.09 4.75.93 13.18-1.16 22.97-3.53z"/><path class="a" d="M238.64 103.598v6.62m9.87-4.75v4.25m3.02-3.31l.07 2.8m-5.97-4.68v5.76m-4.04-6.48l-.07 6.92m-6.41-6.84l.15 7.41m-3.39-7.2v6.63"/><path class="b" d="M222.51 106.618c2.52 0 4.61 1.01 4.61 2.23 0 1.16-2.09 2.16-4.61 2.16s-4.53-.64-4.53-1.8c0-1.22 2.01-2.59 4.53-2.59z"/><path class="c" d="M255.56 108.64c1.23-.29 1.59-1.87.29-2.23-9.29-2.16-14.54-5.48-24.12-3.17-1.37.36-1.66 3.53-2.74 3.53-1.15.07-.72-1.52-2.3-1.8-4.03-.65-7.27.07-8.64.93a2.72 2.72 0 0 1-2.02.65c-1.44-.36-.86-1.94-2.37-2.38-2.38-.72-2.23-.72-4.61-.21-3.24.79 1.66 1.94-.58 3.31-1.36.86 3.46.94 1.44 4.32-.64 1.08-1.51 1.87-.5 2.02 2.16.43 1.8.21 3.96-.29 1.44-.36 1.01-1.73 2.52-2.02.5-.14.58.51 2.09 1.23 1.87.79 5.04 1.29 9.36-.44 1.94-.72 1.22-1.87 1.94-2.01.79-.07.65 1.58 3.31 2.09 4.76.93 13.18-1.16 22.97-3.53z"/><path class="a" d="M249.51 239.818l.08 6.91m13.1-5.61v4.82m-4.1-5.69l.36 6.48m-4.18-6.76v6.91m-10.3-7.92v7.77m-4.39-7.12v7.34"/><path class="b" d="M229.93 242.048c3.1 0 5.62 1.3 5.62 2.88 0 1.52-2.52 2.74-5.62 2.74s-5.62-.79-5.62-2.3c0-1.59 2.52-3.32 5.62-3.32z"/><path class="c" d="M267.8 245.94c1.51-.36 1.59-5.76 0-6.05-11.88-1.94-16.7-2.01-28.65-.93-1.3.07-.51 2.52-1.8 2.59-1.44.07-.72-1.51-2.24-1.73-4.89-.79-6.26.22-11.3.87-.86.07-1.01 1.51-1.94 1.29-1.73-.43-1.08-2.52-2.88-3.09-2.88-.94-2.74-1.16-5.62-.22-1.51.43-1.37 2.38-1.73 4.1-.57 2.02-1.08 3.96-.29 5.84.58 1.44 1.23 2.23 2.52 2.44 2.6.51 2.16.29 4.83-.36 1.73-.5 1.22-2.3 3.02-2.66.65-.14 1.15 1.8 1.8 1.87 5.62.79 6.63-.43 12.31-.79.87-.07.22-2.3 1.16-2.45s1.22 1.37 2.16 1.3c12.31-.79 16.77 1.08 28.65-2.02z"/><path class="d" d="M207.11 109.068c-6.84.86-12.82 1.8-19.95.43-2.73-.5-.5-6.05-5.47-6.05-6.34 0-2.09 4.83-5.76 5.04-7.63.44-18.94.22-26.35-.21-1.08-.07-1.66 1.44-.79 1.51 7.05 1.01 19 .43 26.13.43 4.03 0 .43 6.77 6.41 6.77 6.19.07 2.09-6.34 4.9-6.05 7.34.87 14.25 1.3 21.31.15.93-.15.57-2.16-.43-2.02zM204.95 128.008c-9 .86-16.78 1.8-26.14.43-3.67-.51-.72-6.05-7.2-6.05-8.28 0-2.81 4.82-7.56 5.04-10.01.43-14.11-.36-24.7 1.01-1.44.14-6.33 5.76-5.47 6.19 1.51.79 2.45-2.16 7.27-3.46 5.98-1.72 14.04-1.36 19.3-1.36s2.88 6.12 10.73 6.12c7.99.07 2.73-6.34 6.41-6.05 9.57.86 18.64 1.29 27.93.14 1.3-.14.72-2.16-.57-2.01zM207.11 165.368c-6.84.87-12.82 1.8-19.88.44-2.8-.51-.57-6.05-5.54-6.05-6.34 0-2.09 4.82-5.76 5.04-7.56.43-18.86.21-26.28-.22-1.15-.07-1.73 1.44-.86 1.51 7.12 1.01 19 .44 26.2.44 3.96 0 .36 6.76 6.41 6.76 6.12.08 2.09-6.33 4.83-6.04 7.34.86 14.25 1.29 21.31.14 1.01-.14.57-2.16-.43-2.02zM208.98 188.408c-9.94.87-18.58 1.8-28.87.44-4.04-.51-.8-6.05-8-6.05-9.14 0-3.09 4.82-8.35 5.04-11.01.43-18-8.07-28.87-7.78-1.66.07 9 3.82 10.08 4.25 8.86 3.31 7.06 5.26 17.42 5.26 5.76 0 .58 6.76 9.29 6.76 8.86.08 2.95-6.33 7.06-6.04 10.58.86 20.59 1.29 30.81.14 1.44-.14.87-2.16-.57-2.02z"/><path class="b" d="M171.68 185.248c1.66 0 2.95 1.72 2.95 3.88 0 2.24-1.29 3.96-2.95 3.96-1.58 0-2.95-1.72-2.95-3.96 0-2.16 1.37-3.88 2.95-3.88z"/><path class="d" d="M211.07 210.158c-6.92.86-17.93 1.65-24.99.29-2.81-.51-.57-6.05-5.54-6.05-6.34 0-2.09 4.82-5.76 5.04-7.56.43-17.14-.29-24.48-1.08-1.15-.07-.79 1.58.07 1.65 7.06 1.08 16.27 1.16 23.47 1.16 3.96 0 .36 6.76 6.41 6.76 6.12.08 2.09-6.33 4.82-6.04 7.35.86 19.3 1.44 26.43.28.93-.14.5-2.16-.43-2.01zM208.19 243.848c-9.36.87-17.5 1.8-27.22.44-3.82-.51-.79-6.05-7.56-6.05-8.64 0-2.95 4.82-7.92 5.04-10.37.43-11.88 1.01-22.03.57-1.51-.07-2.31 1.44-1.15 1.52 9.72 1 12.09-.36 21.88-.36 5.4 0 .58 6.76 8.79 6.76 8.35.08 2.81-6.33 6.62-6.04 10.08.86 19.51 1.29 29.16.14 1.37-.14.79-2.16-.57-2.02zM205.95 264.518c-8.49.86-15.76 1.8-24.55.43-3.45-.5-.72-6.05-6.84-6.05-7.77 0-2.66 4.9-7.13 5.04-9.36.43-23.32.22-32.47-.21-1.37-.08-2.09 1.44-1.08 1.51 8.79 1.08 23.55.43 32.33.43 4.97 0 .58 6.77 7.99 6.77 7.56.07 2.52-6.34 5.98-6.05 9.07.86 17.57 1.3 26.35.14 1.15-.14.65-2.16-.58-2.01zM204.73 292.448c-6.84.87-12.82 1.8-19.87.44-2.81-.51-.58-6.05-5.55-6.05-6.33 0-2.08 4.82-5.76 5.04-7.56.43-18.86.21-26.28-.22-1.15-.07-1.72 1.44-.86 1.51 7.13 1.01 19.01.44 26.21.44 3.96 0 .36 6.76 6.41 6.76 6.12.08 2.08-6.33 4.82-6.04 7.34.86 14.26 1.29 21.31.14 1.01-.14.58-2.16-.43-2.02z"/><path class="e" d="M83.41 15.898c.5 15.19-.86 142.49-.86 157.83 0 11.16-1.01 31.46 1.87 36.07 4.1 6.55 15.41-3.89 19.65-8.5a8.169 8.169 0 0 1 12.03-.29c4.39 4.76-.15 13.25 3.6 12.89 3.53-.29 12.09-1.58 13.82-2.01 14.4-3.32 12.89-4.32 13.83-3.1.36.5-3.75 1.37-13.04 4.39-3.74 1.23-11.66 1.95-15.12 2.38-3.88.43-11.3 5.47-13.1 1.37-5.33-12.46-20.52 3.81-24.12-6.77-2.09-6.27-.58-167.47-.36-194.76 0-.79 1.8-.22 1.8.5z"/><path class="e" d="M100.98 25.408c.36 15.55.57 36.86.57 52.41 0 11.38-.72 32.11 1.44 36.79 3.03 6.7 9.8-2.95 12.96-7.63 2.45-3.6 6.56-3.96 9.08-.29 3.31 4.76-.08 13.47 2.66 13.18 2.66-.36 9.14-1.37 10.37-2.09 10.37-6.12 10.15-8.42 10.37-5.69.07.58-2.81 3.89-9.72 6.99-2.88 1.29-8.79 1.94-11.38 2.37-2.88.51-8.5 5.62-9.86 1.44-3.96-12.67-13.68 2.88-16.35-7.84-1.58-6.48-1.65-62.28-1.51-90.15 0-.79 1.37-.21 1.37.51z"/><path class="e" d="M95.22 21.088c.43 15.26 1.37 88.84 1.37 104.11 0 11.16 0 31.17 2.59 35.78 3.67 6.55 1.08-7.2 4.89-11.73 2.88-3.53 7.78-3.89 10.73-.29 3.89 4.68-.14 13.25 3.24 12.89 3.1-.36 9.51-.65 10.44-2.45 3.75-7.13.07-23.33 1.3-24.77 4.97-5.62 1.8 1.08 1.8 5.26 0 6.84-.15 11.16-.29 14.76-.14 3.52-2.16 7.34-.43 10.29 2.16 3.82 19.44-3.24 15.41 1.15-1.8 1.95-15.12.29-15.56 2.09-.43 2.09.58 2.88.58 5.69 0 6.48 2.16 3.74.86 5.9-1.65 2.74-2.52-10.08-2.88-14.83.94-4.82-8.56-1.94-11.73-1.51-3.46.5-5.76 4.75-8.86 7.13-4.25 3.24-8.49 1.37-11.66-9.15-1.95-6.33-3.6-113.47-3.39-140.83 0-.79 1.59-.21 1.59.51z"/><path class="e" d="M88.16 20.728c.51 15.19.15 198.86.15 214.12 0 11.16-.65 31.25 2.23 35.86 4.1 6.55 1.15-7.2 5.4-11.81a8.157 8.157 0 0 1 12.02-.29c4.39 4.76-.14 13.25 3.6 12.89 3.53-.29 10.66-.65 11.74-2.37 4.1-7.2 1.65-12.96 2.23-15.7 2.3-10.22 23.47-12.89 10.73-8.57-11.23 3.89-10.23 11.74-9.29 16.78.36 1.65 5.62-2.09 5.33.86-.15.94-6.05.15-6.34 1.95-1.37 8.13.87 15.76 1.51 21.31.8 6.41 18.58 3.67 17.14 5.83-.86 1.3-17.57 1.87-18.43-.86-1.8-6.05-1.8-13.76-2.02-16.06 1.01-4.9-9.65-1.94-13.1-1.51-3.89.43-6.48 4.68-9.94 7.13-4.68 3.24-9.43 1.36-13.03-9.22-2.09-6.26-2.02-223.56-1.73-250.85 0-.79 1.8-.21 1.8.51z"/><path class="f" d="M205.38 103.668c-1.59-.07-13.25-1.01-14.4 4.54-1.08 5.61 1.65 31.24-.58 37.08-5.04 13.46-8.28-6.2-15.33-5.55-5.62.51-9.44 9.43-3.96 17.43 7.12 10.36 16.92-12.46 17.71.72.79 7.48-.43 15.12-.58 22.53-.5 21.6-3.81 47.67-2.09 69.12 2.67 6.55 19.44 3.75 24.27.36 6.62-4.61-19.51 6.7-21.75-.86-2.37-8.07-.93-35.43-.28-46.51 1-5.48 12.16-2.16 17.28-1.08 1.8.36 5.11 7.84 4.03 2.8-1.3-8.78-18.72-4.82-20.09-6.62-2.3.79-.29-18.5 1.44-20.66 3.17-3.89 16.85-4.47 16.85-6.77 0-2.59-16.71 4.32-17.07 4.1-1.58-.72.94-16.13 1.44-22.1a131.913 131.913 0 0 0 .72-16.13c-.14-5.9-1.29-23.76.65-28.37 1.51-3.53 18.65-3.6 11.74-4.03z"/><path class="g" d="M282.35 101.079l.07 200.01"/><path class="c" d="M.11 164.439l45.79-.07.07-7.921 9.5 16.701-9.5 15.7v-6.92H.11v-17.49z"/><text class="h" transform="matrix(.952 0 0 1 3.778 177.827)">Light</text><text class="k" transform="translate(255.075 10.303)">choroid</text><text class="l" transform="translate(106.411 10.303)">ganglion cell</text><text class="m" transform="translate(253.419 41.842)">rod</text><text class="k" transform="translate(220.231 77.756)">cone</text><path class="n" d="M110.99 19.208v76.681"/><path class="o" d="M113.58 95.389l-2.59 4.819-2.6-4.819h5.19z"/><path class="n" d="M281.99 14.749v76.61"/><path class="o" d="M284.58 90.849l-2.59 4.83-2.6-4.83h5.19z"/><path class="n" d="M263.99 46.208v67.681"/><path class="o" d="M266.58 113.389l-2.59 4.82-2.6-4.82h5.19z"/><path class="n" d="M236.99 82.208v13.681"/><path class="o" d="M239.58 95.389l-2.59 4.819-2.6-4.819h5.19z"/><text class="p" transform="translate(115.411 77.756)">bipolar cell</text><path class="n" d="M164.99 82.208v18.22"/><path class="o" d="M167.58 99.929l-2.59 4.819-2.6-4.819h5.19z"/><path class="n" d="M196.45 46.208v49.681"/><path class="o" d="M199.04 95.389l-2.59 4.819-2.59-4.819h5.18z"/><path class="b" d="M119.84 109.568c1.73 0 3.1 2.6 3.1 5.84 0 3.16-1.37 5.76-3.1 5.76s-3.09-2.6-3.09-5.76c0-3.24 1.36-5.84 3.09-5.84zM109.4 151.84c2.59 0 4.68 2.52 4.68 5.69s-2.09 5.68-4.68 5.68c-2.66 0-4.75-2.52-4.75-5.68s2.09-5.69 4.75-5.69zM109.26 203.888c2.23 0 4.17 2.52 4.17 5.69s-1.94 5.69-4.17 5.69c-2.31 0-4.18-2.52-4.18-5.69s1.87-5.69 4.18-5.69zM100.4 263.008c2.23 0 4.18 2.52 4.18 5.68s-1.95 5.69-4.18 5.69c-2.3 0-4.17-2.52-4.17-5.69s1.87-5.68 4.17-5.68zM181.4 105.898c1.08 0 2.02 1.73 2.02 3.89 0 2.23-.94 3.96-2.02 3.96s-2.01-1.73-2.01-3.96c0-2.16.93-3.89 2.01-3.89zM171.25 124.84c1.44 0 2.66 1.73 2.66 3.89 0 2.23-1.22 3.96-2.66 3.96-1.51 0-2.74-1.73-2.74-3.96 0-2.16 1.23-3.89 2.74-3.89zM181.4 162.208c1.15 0 2.09 1.72 2.09 3.88 0 2.24-.94 3.96-2.09 3.96-1.08 0-2.01-1.72-2.01-3.96 0-2.16.93-3.88 2.01-3.88zM180.25 206.848c1.15 0 2.09 1.72 2.09 3.88 0 2.24-.94 3.96-2.09 3.96-1.08 0-2.02-1.72-2.02-3.96 0-2.16.94-3.88 2.02-3.88zM172.98 240.688c1.51 0 2.81 1.72 2.81 3.88 0 2.24-1.3 3.96-2.81 3.96s-2.81-1.72-2.81-3.96c0-2.16 1.3-3.88 2.81-3.88zM174.2 261.348c1.37 0 2.52 1.73 2.52 3.89 0 2.23-1.15 3.96-2.52 3.96s-2.52-1.73-2.52-3.96c0-2.16 1.15-3.89 2.52-3.89zM179.03 289.288c1.15 0 2.08 1.72 2.08 3.88 0 2.24-.93 3.96-2.08 3.96-1.08 0-2.02-1.72-2.02-3.96 0-2.16.94-3.88 2.02-3.88zM176.15 142.548c2.52 0 4.53 3.1 4.53 6.98 0 3.82-2.01 6.99-4.53 6.99-2.45 0-4.54-3.17-4.54-6.99 0-3.88 2.09-6.98 4.54-6.98z"/><text class="m" transform="translate(127.364 41.842)">horizontal cell</text></svg>