<svg width="1024" height="768" xmlns="http://www.w3.org/2000/svg"><defs><style>.square{stroke:red;stroke-opacity:.1;stroke-width:1;fill:transparent}.grid{fill:url(#grid)}.line{stroke:#8af8f9}</style><pattern width="24" height="24" viewBox="0 0 24 24" patternUnits="userSpaceOnUse" id="grid"><path class="square" d="M0 0h24v24H0z"/></pattern></defs><path class="grid" d="M0 0h1024v768H0z"/><path class="line" d="M96 0v768M192 0v768M288 0v768M384 0v768M480 0v768M528 0v768M624 0v768M720 0v768M816 0v768M912 0v768M0 120h1024M0 192h1024M0 240h1024M0 288h1024M0 336h1024M0 384h1024M0 432h1024M0 480h1024M0 528h1024M0 576h1024M0 624h1024M0 672h1024M0 720h1024"/></svg>